<svg width="28" height="28" viewBox="0 0 28 28" fill="none" xmlns="http://www.w3.org/2000/svg">
<path d="M12.1333 2.7998C6.46333 2.7998 1.86667 6.97834 1.86667 12.1331C1.86667 14.7806 3.08759 17.1617 5.03672 18.8579C4.75714 19.7734 4.17396 20.6841 3.1026 21.4956C3.102 21.4962 3.10139 21.4969 3.10078 21.4975C3.01242 21.5311 2.93634 21.5907 2.88263 21.6685C2.82892 21.7463 2.8001 21.8386 2.8 21.9331C2.8 22.0569 2.84917 22.1756 2.93668 22.2631C3.0242 22.3506 3.1429 22.3998 3.26667 22.3998C3.29855 22.3994 3.33032 22.3957 3.36146 22.3889C5.17219 22.3836 6.71715 21.6101 7.94609 20.6407C8.52929 20.8779 9.13805 21.0735 9.77266 21.2094C9.48892 20.4068 9.33333 19.5522 9.33333 18.6665C9.33333 17.3243 9.69331 16.0597 10.3177 14.9331H8.4C7.8848 14.9331 7.46667 14.515 7.46667 13.9998C7.46667 13.4846 7.8848 13.0665 8.4 13.0665H11.7305C12.4883 12.3067 13.3928 11.6711 14.4102 11.1998H8.4C7.8848 11.1998 7.46667 10.7817 7.46667 10.2665C7.46667 9.75127 7.8848 9.33314 8.4 9.33314H15.8667C16.3819 9.33314 16.8 9.75127 16.8 10.2665C16.8 10.329 16.7766 10.3845 16.7654 10.4433C17.3795 10.3285 18.0152 10.2665 18.6667 10.2665C19.9565 10.2665 21.1861 10.5034 22.3052 10.9318C21.6556 6.34544 17.3544 2.7998 12.1333 2.7998ZM18.6667 12.1331C14.5432 12.1331 11.2 15.0582 11.2 18.6665C11.2 22.2747 14.5432 25.1998 18.6667 25.1998C19.6523 25.1998 20.5906 25.0277 21.4521 24.724C22.5967 25.5236 23.9819 26.1167 25.5682 26.1222C25.6006 26.1293 25.6336 26.133 25.6667 26.1331C25.7904 26.1331 25.9091 26.084 25.9967 25.9965C26.0842 25.9089 26.1333 25.7902 26.1333 25.6665C26.1332 25.571 26.1037 25.4778 26.049 25.3996C25.9942 25.3214 25.9168 25.2618 25.8271 25.229C24.9729 24.5805 24.4254 23.8666 24.0971 23.1399C25.356 21.9704 26.1333 20.3998 26.1333 18.6665C26.1333 15.0582 22.7901 12.1331 18.6667 12.1331ZM15.8667 15.8665H21.4667C21.9819 15.8665 22.4 16.2846 22.4 16.7998C22.4 17.315 21.9819 17.7331 21.4667 17.7331H15.8667C15.3515 17.7331 14.9333 17.315 14.9333 16.7998C14.9333 16.2846 15.3515 15.8665 15.8667 15.8665ZM15.8667 19.5998H21.4667C21.9819 19.5998 22.4 20.0179 22.4 20.5331C22.4 21.0483 21.9819 21.4665 21.4667 21.4665H15.8667C15.3515 21.4665 14.9333 21.0483 14.9333 20.5331C14.9333 20.0179 15.3515 19.5998 15.8667 19.5998Z" fill="white"/>
</svg>
