<svg width="20" height="21" viewBox="0 0 20 21" fill="none" xmlns="http://www.w3.org/2000/svg">
<g clip-path="url(#clip0_729_1893)">
<path d="M10 0.747559C4.475 0.747559 0 5.22506 0 10.7476C0 15.1667 2.865 18.9142 6.8375 20.2351C7.3375 20.3292 7.52083 20.0201 7.52083 19.7542C7.52083 19.5167 7.5125 18.8876 7.50833 18.0542C4.72667 18.6576 4.14 16.7126 4.14 16.7126C3.685 15.5584 3.0275 15.2501 3.0275 15.2501C2.12167 14.6301 3.0975 14.6426 3.0975 14.6426C4.10167 14.7126 4.62917 15.6726 4.62917 15.6726C5.52083 17.2017 6.97 16.7601 7.54167 16.5042C7.63167 15.8576 7.88917 15.4167 8.175 15.1667C5.95417 14.9167 3.62 14.0567 3.62 10.2251C3.62 9.13339 4.0075 8.24173 4.64917 7.54173C4.53667 7.28923 4.19917 6.27256 4.73667 4.89506C4.73667 4.89506 5.57417 4.62673 7.48667 5.92006C8.28667 5.69756 9.13667 5.58756 9.98667 5.58256C10.8367 5.58756 11.6867 5.69756 12.4867 5.92006C14.3867 4.62673 15.2242 4.89506 15.2242 4.89506C15.7617 6.27256 15.4242 7.28923 15.3242 7.54173C15.9617 8.24173 16.3492 9.13339 16.3492 10.2251C16.3492 14.0667 14.0117 14.9126 11.7867 15.1584C12.1367 15.4584 12.4617 16.0717 12.4617 17.0084C12.4617 18.3467 12.4492 19.4217 12.4492 19.7467C12.4492 20.0092 12.6242 20.3217 13.1367 20.2217C17.1375 18.9101 20 15.1601 20 10.7476C20 5.22506 15.5225 0.747559 10 0.747559Z" fill="white"/>
</g>
<defs>
<clipPath id="clip0_729_1893">
<rect width="20" height="20" fill="white" transform="translate(0 0.5)"/>
</clipPath>
</defs>
</svg>
